<?xml version="1.0" encoding="UTF-8"?>
<svg id="Layer_2" data-name="Layer 2" xmlns="http://www.w3.org/2000/svg" xmlns:xlink="http://www.w3.org/1999/xlink" viewBox="0 0 225.74 226">
  <defs>
    <style>
      .cls-1 {
        fill: #63f655;
      }

      .cls-2 {
        fill: url(#linear-gradient-2);
        fill-opacity: .4;
      }

      .cls-2, .cls-3, .cls-4 {
        fill-rule: evenodd;
      }

      .cls-3 {
        fill: url(#linear-gradient);
      }

      .cls-4 {
        fill: #00e0d9;
      }
    </style>
    <linearGradient id="linear-gradient" x1="218.19" y1="-6.75" x2="19.44" y2="219.02" gradientTransform="translate(0 225.89) scale(1 -1)" gradientUnits="userSpaceOnUse">
      <stop offset="0" stop-color="#62f755"/>
      <stop offset="1" stop-color="#8ff986" stop-opacity="0"/>
    </linearGradient>
    <linearGradient id="linear-gradient-2" x1="249.08" y1="59.97" x2="114.96" y2="112.08" gradientTransform="translate(0 225.89) scale(1 -1)" gradientUnits="userSpaceOnUse">
      <stop offset="0" stop-color="#000" stop-opacity=".9"/>
      <stop offset="1" stop-color="#1a1a1a" stop-opacity="0"/>
    </linearGradient>
  </defs>
  <g id="Layer_1-2" data-name="Layer 1">
    <path class="cls-4" d="M0,38.97C0,17.45,17.43,0,38.92,0h147.9c21.5,0,38.92,17.45,38.92,38.97v125.93c0,22.26-28.14,31.93-41.79,14.35l-42.67-54.95v66.64c0,19.37-15.68,35.07-35.03,35.07H38.92c-21.49,0-38.92-17.45-38.92-38.97V38.97ZM38.92,31.17c-4.3,0-7.78,3.49-7.78,7.79v148.07c0,4.3,3.48,7.79,7.78,7.79h68.5c2.15,0,2.72-1.75,2.72-3.9v-89.36c0-22.26,28.14-31.93,41.79-14.35l42.67,54.95V38.97c0-4.3.41-7.79-3.89-7.79H38.92Z"/>
    <path class="cls-3" d="M0,38.97C0,17.45,17.43,0,38.92,0h147.9c21.5,0,38.92,17.45,38.92,38.97v125.93c0,22.26-28.14,31.93-41.79,14.35l-42.67-54.95v66.64c0,19.37-15.68,35.07-35.03,35.07H38.92c-21.49,0-38.92-17.45-38.92-38.97V38.97ZM38.92,31.17c-4.3,0-7.78,3.49-7.78,7.79v148.07c0,4.3,3.48,7.79,7.78,7.79h68.5c2.15,0,2.72-1.75,2.72-3.9v-89.36c0-22.26,28.14-31.93,41.79-14.35l42.67,54.95V38.97c0-4.3.41-7.79-3.89-7.79H38.92Z"/>
    <path class="cls-2" d="M0,38.97C0,17.45,17.43,0,38.92,0h147.9c21.5,0,38.92,17.45,38.92,38.97v125.93c0,22.26-28.14,31.93-41.79,14.35l-42.67-54.95v66.64c0,19.37-15.68,35.07-35.03,35.07H38.92c-21.49,0-38.92-17.45-38.92-38.97V38.97ZM38.92,31.17c-4.3,0-7.78,3.49-7.78,7.79v148.07c0,4.3,3.48,7.79,7.78,7.79h68.5c2.15,0,2.72-1.75,2.72-3.9v-89.36c0-22.26,28.14-31.93,41.79-14.35l42.67,54.95V38.97c0-4.3.41-7.79-3.89-7.79H38.92Z"/>
    <path class="cls-1" d="M186.82,0c21.49,0,38.92,17.45,38.92,38.97v125.93c0,22.26-28.14,31.93-41.79,14.35l-42.67-54.95v66.64c0,19.37-15.68,35.07-35.03,35.07,2.15,0,3.89-1.74,3.89-3.9v-120.53c0-22.26,28.14-31.93,41.79-14.35l42.67,54.95V7.79c0-4.3-3.49-7.79-7.78-7.79Z"/>
  </g>
</svg>