<?xml version="1.0" encoding="UTF-8"?>
<svg id="Layer_1" xmlns="http://www.w3.org/2000/svg" version="1.1" viewBox="0 0 1024 1024">
  <!-- Generator: Adobe Illustrator 29.1.0, SVG Export Plug-In . SVG Version: 2.1.0 Build 142)  -->
  <defs>
    <style>
      .st0 {
        fill: #fff;
      }
    </style>
  </defs>
  <path class="st0" d="M478.5.8c-2.2.2-9.2.9-15.5,1.4C317.7,15.3,181.6,93.7,95.4,214.2,47.4,281.2,16.7,357.2,5.1,437.7c-4.1,28.1-4.6,36.4-4.6,74.5s.5,46.4,4.6,74.5c27.8,192.1,164.5,353.5,349.9,413.3,33.2,10.7,68.2,18,108,22.4,15.5,1.7,82.5,1.7,98,0,68.7-7.6,126.9-24.6,184.3-53.9,8.8-4.5,10.5-5.7,9.3-6.7-.8-.6-38.3-50.9-83.3-111.7l-81.8-110.5-102.5-151.7c-56.4-83.4-102.8-151.6-103.2-151.6-.4,0-.8,67.3-1,149.6-.3,144.1-.4,149.9-2.2,153.3-2.6,4.9-4.6,6.9-8.8,9.1-3.2,1.6-6,1.9-21.1,1.9h-17.3l-4.6-2.9c-3-1.9-5.2-4.4-6.7-7.3l-2.1-4.5.2-200.5.3-200.6,3.1-3.9c1.6-2.1,5-4.8,7.4-6.1,4.1-2,5.7-2.2,23-2.2s23.8.8,29.1,6.6c1.5,1.6,57,85.2,123.4,185.9s157.2,238.2,201.8,305.7l81,122.7,4.1-2.7c36.3-23.6,74.7-57.2,105.1-92.2,64.7-74.3,106.4-164.9,120.4-261.5,4.1-28.1,4.6-36.4,4.6-74.5s-.5-46.4-4.6-74.5c-27.8-192.1-164.5-353.5-349.9-413.3-32.7-10.6-67.5-17.9-106.5-22.3C552.9,1.1,486.8,0,478.5.8h0ZM687.9,310.2c4.8,2.4,8.7,7,10.1,11.8.8,2.6,1,58.2.8,183.5l-.3,179.8-31.7-48.6-31.8-48.6v-130.7c0-84.5.4-132,1-134.3,1.6-5.6,5.1-10,9.9-12.6,4.1-2.1,5.6-2.3,21.3-2.3s17.4.2,20.7,2h0Z"/>
  <path d="M784.3,945.2c-3.5,2.2-4.6,3.7-1.5,2,2.2-1.3,5.8-4,5.2-4.1-.3,0-2,1-3.7,2.1ZM777.4,949.7c-1.8,1.4-1.8,1.5.4.4,1.2-.6,2.2-1.3,2.2-1.5,0-.8-.5-.6-2.6,1.1h0ZM772.4,952.7c-1.8,1.4-1.8,1.5.4.4,1.2-.6,2.2-1.3,2.2-1.5,0-.8-.5-.6-2.6,1.1h0ZM767.4,955.7c-1.8,1.4-1.8,1.5.4.4,1.2-.6,2.2-1.3,2.2-1.5,0-.8-.5-.6-2.6,1.1h0ZM759.8,959.7c-3.8,2-3.6,2.8.2.9,1.7-.9,3-1.8,3-2,0-.7,0-.6-3.2,1.1Z"/>
</svg>